<?xml version="1.0" standalone="no"?>
<!DOCTYPE svg PUBLIC "-//W3C//DTD SVG 1.0//EN" "http://www.w3.org/TR/2001/REC-SVG-20010904/DTD/svg10.dtd">
<svg xmlns="http://www.w3.org/2000/svg" xmlns:xlink="http://www.w3.org/1999/xlink" id="body_1" width="80" height="80">

<g transform="matrix(0.5 0 0 0.5 0 0)">
	<g transform="matrix(0.625 0 0 0.625 0 0)">
        <path d="M228 80.668L228 175.332C 227.99474 181.09917 224.89107 186.41872 219.87305 189.2612L219.87305 189.2612L135.87305 236.73972C 130.98302 239.48384 125.016975 239.48384 120.126945 236.73972L120.126945 236.73972L36.126945 189.26172C 31.10898 186.41893 28.00536 181.09927 28 175.332L28 175.332L28 80.668C 28.005266 74.900826 31.108965 69.58127 36.127 66.7388L36.127 66.7388L120.127 19.26028C 125.01696 16.515902 130.98314 16.515902 135.8731 19.26028L135.8731 19.26028L219.8731 66.73828C 224.89105 69.58108 227.99466 74.900734 228 80.668z" stroke="none" fill="#000000" fill-rule="nonzero" />
	</g>
</g>
</svg>